# xmcd
#
# Track frame offsets:
#	150
#	26230
#	40608
#	60556
#	85521
#	109643
#	142261
#	156823
#	176774
#	201116
#	229055
#
# Disc length: 3652 seconds
#
# Revision: 1
# Processed by: cddbd v1.5.1PL2 Copyright (c) Steve Scherf et al.
# Submitted via: audiograbber 1.83.01
#
DISCID=8d0e420b
DTITLE=The Terrygold Hillbillies - Hillbilly Moonshine
DYEAR=1900
DGENRE=Country
TTITLE0=Hungry Hill
TTITLE1=Hillbilly Moonshine
TTITLE2=Distant Shore
TTITLE3=Sideways To The Sun
TTITLE4=Star Of The Country Down - Millers Reel
TTITLE5=Spanish Girl
TTITLE6=Graveyard Train
TTITLE7=Stay A While
TTITLE8=If You Leave Me Can I Come Too?
TTITLE9=Sour Apples
TTITLE10=Red Is The Rose
EXTD=
EXTT0=
EXTT1=
EXTT2=
EXTT3=
EXTT4=
EXTT5=
EXTT6=
EXTT7=
EXTT8=
EXTT9=
EXTT10=
PLAYORDER=
